<?xml version="1.0" encoding="UTF-8"?>
<!-- Generated by Pixelmator Pro 3.6.10 -->
<svg width="1365" height="1365" viewBox="0 0 1365 1365" xmlns="http://www.w3.org/2000/svg">
    <g id="Group">
        <path id="Path" fill="#000000" stroke="none" d="M 807.38385 0.319092 C 627.756409 10.289185 493.160492 49.837036 408.581085 117.30127 C 390.634949 131.591797 357.567566 165.48999 343.941772 183.436157 C 309.545044 228.966064 286.281555 283.136841 277.308472 339.135254 C 275.480652 350.102417 272.489594 375.858398 270.661804 396.463196 C 263.516571 474.063599 255.041992 513.77771 212.004532 670.640137 C 188.408722 756.382751 187.57785 760.038391 187.57785 773.996521 C 187.57785 791.610352 195.720108 803.075867 212.835358 809.722656 C 218.983582 812.215149 230.615341 812.713623 300.239655 813.544495 C 377.341492 814.375366 380.664886 814.541443 382.991241 817.532532 C 384.320557 819.360352 385.317596 823.18219 385.317596 826.00708 C 385.317596 831.490662 379.667847 865.222656 369.365448 921.221252 C 362.718781 957.944336 362.884949 961.599976 371.359467 964.757202 C 373.85199 965.754211 409.411896 966.418823 461.588593 966.418823 L 547.663513 966.418823 L 553.313293 970.240723 C 561.289307 975.558105 564.446472 985.029663 560.95697 993.338074 C 559.461426 996.827637 555.971924 1000.981812 552.814758 1002.97583 C 547.497375 1006.132935 544.672546 1006.299133 455.938904 1006.299133 C 357.733734 1006.299133 358.232239 1006.299133 354.078033 1014.93988 C 352.914856 1017.266235 346.766632 1045.016235 340.452271 1076.421997 C 323.170807 1160.669067 323.004669 1176.953491 339.621399 1195.398193 C 361.389404 1219.658691 423.536194 1232.453613 502.465881 1228.797852 C 527.058716 1227.634766 577.739929 1221.984985 583.721985 1219.658691 C 586.04834 1218.661621 586.380676 1225.30835 586.380676 1284.464111 C 586.380676 1356.91333 586.546814 1357.578003 596.350769 1362.729126 C 600.671143 1364.889282 633.073853 1365.22168 882.824036 1364.889282 L 1164.478516 1364.390869 L 1169.131348 1360.901245 C 1171.623779 1359.073486 1174.614746 1354.919312 1175.777954 1351.762085 C 1178.436523 1344.284546 1178.768921 366.719177 1176.276489 333.984131 C 1171.291382 271.338867 1152.680542 209.524414 1118.283936 141.395508 C 1082.723999 71.106689 1047.828735 35.712891 995.48584 16.935913 C 980.032227 11.452393 948.294189 4.971802 924.532166 2.645508 C 905.755249 0.817627 826.493164 -0.677979 807.38385 0.319092 Z M 648.859741 436.509705 C 658.497498 446.313538 658.829834 459.606995 649.358276 470.24176 C 645.536438 474.728333 642.213074 476.389954 635.566345 477.885498 C 629.418152 479.048584 593.692017 479.547119 522.239868 479.214783 C 425.364044 478.716248 417.388 478.550171 412.236755 475.725281 C 396.450806 467.084534 395.952332 442.990234 411.239746 432.853943 C 415.892456 429.862976 420.545166 429.696777 529.385132 430.029114 L 642.877686 430.527649 L 648.859741 436.509705 Z"/>
    </g>
</svg>
